<svg xmlns="http://www.w3.org/2000/svg" width="123.636" height="24" viewBox="0 0 123.636 24">
  <path id="logo" d="M5.857,18.708a7.164,7.164,0,0,0,4.07-1.08,3.551,3.551,0,0,0,1.613-3.144Q11.415,11.7,7.4,10.311l-1.44-.6a2.368,2.368,0,0,1-.67-.3.45.45,0,0,1-.2-.373q0-.621.819-.62A1.6,1.6,0,0,1,7.42,9.466l3.7-1.044A5.068,5.068,0,0,0,5.956,5.093a5.947,5.947,0,0,0-3.8,1.193A3.768,3.768,0,0,0,.645,9.39,3.4,3.4,0,0,0,.819,10.5a2.546,2.546,0,0,0,.521.894,8.649,8.649,0,0,0,.67.671,3.764,3.764,0,0,0,.82.534q.495.249.756.36t.707.261l.422.15,1.49.546a2.7,2.7,0,0,1,.707.335.449.449,0,0,1,.16.36q0,.646-1.215.647a1.923,1.923,0,0,1-2.134-1.59L0,14.509q.694,4.2,5.857,4.2Zm11.636,0a3.957,3.957,0,0,0,3.623-1.888v1.615h5.112V5.366H21.116v7.156q0,2.211-1.514,2.21-1.539,0-1.539-2.21V5.366H12.951v7.653q0,5.69,4.542,5.69Zm16.1-.273V11.28q0-2.213,1.513-2.212,1.539,0,1.54,2.212v7.155H41.76V10.783q0-5.69-4.541-5.69A3.956,3.956,0,0,0,33.6,6.981V5.366H28.483V18.435H33.6Zm15.383,0V11.28q0-2.213,1.514-2.212,1.538,0,1.538,2.212v7.155h5.113V10.783q0-5.69-4.542-5.69a3.956,3.956,0,0,0-3.623,1.888V5.366H43.866V18.435h5.113ZM64.958,24,73.247,5.366H67.91L65.378,12.05,63.12,5.366H57.536l5.435,11.8L59.944,24Zm13.67-5.292a7.164,7.164,0,0,0,4.07-1.08,3.549,3.549,0,0,0,1.614-3.144q-.125-2.783-4.145-4.173l-1.44-.6a2.381,2.381,0,0,1-.67-.3.45.45,0,0,1-.2-.373q0-.621.819-.62a1.605,1.605,0,0,1,1.514,1.043l3.7-1.044a5.069,5.069,0,0,0-5.162-3.329,5.947,5.947,0,0,0-3.8,1.193,3.767,3.767,0,0,0-1.514,3.105A3.428,3.428,0,0,0,73.59,10.5a2.533,2.533,0,0,0,.522.894,8.477,8.477,0,0,0,.67.671,3.78,3.78,0,0,0,.819.534c.33.166.583.286.757.36s.41.162.707.261l.422.15,1.489.546a2.682,2.682,0,0,1,.707.335.449.449,0,0,1,.161.36q0,.647-1.216.647a1.925,1.925,0,0,1-2.134-1.59l-3.723.844q.7,4.2,5.857,4.2Zm9.8-14.137a3.121,3.121,0,0,0,2.11-.646,2.079,2.079,0,0,0,.744-1.64,2.094,2.094,0,0,0-.72-1.651,3.91,3.91,0,0,0-4.269,0,2.1,2.1,0,0,0-.72,1.652,2.079,2.079,0,0,0,.745,1.64A3.126,3.126,0,0,0,88.428,4.571Zm2.556,13.864V5.366H85.87V18.435h5.113Zm7.74.273a3.981,3.981,0,0,0,3.722-1.888v1.615h5.112V.472h-5.112V7.006a3.967,3.967,0,0,0-3.723-1.913,5.671,5.671,0,0,0-4.38,1.926,6.981,6.981,0,0,0-1.75,4.882,6.986,6.986,0,0,0,1.75,4.882,5.673,5.673,0,0,0,4.38,1.925Zm1.39-3.9a2.13,2.13,0,0,1-1.75-.82,3.229,3.229,0,0,1-.658-2.087,3.273,3.273,0,0,1,.645-2.087,2.164,2.164,0,0,1,1.762-.82,2.13,2.13,0,0,1,1.75.82,3.231,3.231,0,0,1,.657,2.087,3.235,3.235,0,0,1-.657,2.087,2.133,2.133,0,0,1-1.75.82Zm16.7,3.9a8.063,8.063,0,0,0,6.08-2.26l-2.11-2.833a5.449,5.449,0,0,1-3.524,1.267,4.054,4.054,0,0,1-2.42-.67q-.93-.672-.93-1.293h9.6a4.476,4.476,0,0,0,.124-1.167,6.171,6.171,0,0,0-2.022-4.87,7.52,7.52,0,0,0-5.175-1.789A7.1,7.1,0,0,0,111.1,7.106a6.691,6.691,0,0,0-1.961,4.844,6.319,6.319,0,0,0,2.072,4.833,7.9,7.9,0,0,0,5.6,1.925Zm2.208-8.149h-5.112a1.692,1.692,0,0,1,.794-1.4,3.158,3.158,0,0,1,1.762-.484,3.094,3.094,0,0,1,1.762.5,1.7,1.7,0,0,1,.794,1.391Z" fill="#2b7463"/>
</svg>
